<svg id="visual" viewBox="0 0 3840 1300" width="3840" height="1300" xmlns="http://www.w3.org/2000/svg" xmlns:xlink="http://www.w3.org/1999/xlink" version="1.1"><path d="M0 222L58.2 232.8C116.3 243.7 232.7 265.3 349 265.3C465.3 265.3 581.7 243.7 698 252.3C814.3 261 930.7 300 1047 315.2C1163.3 330.3 1279.7 321.7 1396 310.8C1512.3 300 1628.7 287 1745.2 282.7C1861.7 278.3 1978.3 282.7 2094.8 274C2211.3 265.3 2327.7 243.7 2444 248C2560.3 252.3 2676.7 282.7 2793 263.2C2909.3 243.7 3025.7 174.3 3142 152.7C3258.3 131 3374.7 157 3491 198.2C3607.3 239.3 3723.7 295.7 3781.8 323.8L3840 352L3840 0L3781.8 0C3723.7 0 3607.3 0 3491 0C3374.7 0 3258.3 0 3142 0C3025.7 0 2909.3 0 2793 0C2676.7 0 2560.3 0 2444 0C2327.7 0 2211.3 0 2094.8 0C1978.3 0 1861.7 0 1745.2 0C1628.7 0 1512.3 0 1396 0C1279.7 0 1163.3 0 1047 0C930.7 0 814.3 0 698 0C581.7 0 465.3 0 349 0C232.7 0 116.3 0 58.2 0L0 0Z" fill="#7331b1"></path><path d="M0 612L58.2 614.2C116.3 616.3 232.7 620.7 349 642.3C465.3 664 581.7 703 698 726.8C814.3 750.7 930.7 759.3 1047 744.2C1163.3 729 1279.7 690 1396 687.8C1512.3 685.7 1628.7 720.3 1745.2 709.5C1861.7 698.7 1978.3 642.3 2094.8 594.7C2211.3 547 2327.7 508 2444 492.8C2560.3 477.7 2676.7 486.3 2793 512.3C2909.3 538.3 3025.7 581.7 3142 603.3C3258.3 625 3374.7 625 3491 640.2C3607.3 655.3 3723.7 685.7 3781.8 700.8L3840 716L3840 350L3781.8 321.8C3723.7 293.7 3607.3 237.3 3491 196.2C3374.7 155 3258.3 129 3142 150.7C3025.7 172.3 2909.3 241.7 2793 261.2C2676.7 280.7 2560.3 250.3 2444 246C2327.7 241.7 2211.3 263.3 2094.8 272C1978.3 280.7 1861.7 276.3 1745.2 280.7C1628.7 285 1512.3 298 1396 308.8C1279.7 319.7 1163.3 328.3 1047 313.2C930.7 298 814.3 259 698 250.3C581.7 241.7 465.3 263.3 349 263.3C232.7 263.3 116.3 241.7 58.2 230.8L0 220Z" fill="#883dce"></path><path d="M0 833L58.2 822.2C116.3 811.3 232.7 789.7 349 798.3C465.3 807 581.7 846 698 861.2C814.3 876.3 930.7 867.7 1047 865.5C1163.3 863.3 1279.7 867.7 1396 872C1512.3 876.3 1628.7 880.7 1745.2 859C1861.7 837.3 1978.3 789.7 2094.8 742C2211.3 694.3 2327.7 646.7 2444 629.3C2560.3 612 2676.7 625 2793 672.7C2909.3 720.3 3025.7 802.7 3142 839.5C3258.3 876.3 3374.7 867.7 3491 854.7C3607.3 841.7 3723.7 824.3 3781.8 815.7L3840 807L3840 714L3781.8 698.8C3723.7 683.7 3607.3 653.3 3491 638.2C3374.7 623 3258.3 623 3142 601.3C3025.7 579.7 2909.3 536.3 2793 510.3C2676.7 484.3 2560.3 475.7 2444 490.8C2327.7 506 2211.3 545 2094.8 592.7C1978.3 640.3 1861.7 696.7 1745.2 707.5C1628.7 718.3 1512.3 683.7 1396 685.8C1279.7 688 1163.3 727 1047 742.2C930.7 757.3 814.3 748.7 698 724.8C581.7 701 465.3 662 349 640.3C232.7 618.7 116.3 614.3 58.2 612.2L0 610Z" fill="#9d49ec"></path><path d="M0 1119L58.2 1116.8C116.3 1114.7 232.7 1110.3 349 1110.3C465.3 1110.3 581.7 1114.7 698 1127.7C814.3 1140.7 930.7 1162.3 1047 1173.2C1163.3 1184 1279.7 1184 1396 1186.2C1512.3 1188.3 1628.7 1192.7 1745.2 1186.2C1861.7 1179.7 1978.3 1162.3 2094.8 1162.3C2211.3 1162.3 2327.7 1179.7 2444 1175.3C2560.3 1171 2676.7 1145 2793 1138.5C2909.3 1132 3025.7 1145 3142 1162.3C3258.3 1179.7 3374.7 1201.3 3491 1192.7C3607.3 1184 3723.7 1145 3781.8 1125.5L3840 1106L3840 805L3781.8 813.7C3723.7 822.3 3607.3 839.7 3491 852.7C3374.7 865.7 3258.3 874.3 3142 837.5C3025.7 800.7 2909.3 718.3 2793 670.7C2676.7 623 2560.3 610 2444 627.3C2327.7 644.7 2211.3 692.3 2094.8 740C1978.3 787.7 1861.7 835.3 1745.2 857C1628.7 878.7 1512.3 874.3 1396 870C1279.7 865.7 1163.3 861.3 1047 863.5C930.7 865.7 814.3 874.3 698 859.2C581.7 844 465.3 805 349 796.3C232.7 787.7 116.3 809.3 58.2 820.2L0 831Z" fill="#af68f0"></path><path d="M0 1301L58.2 1301C116.3 1301 232.7 1301 349 1301C465.3 1301 581.7 1301 698 1301C814.3 1301 930.7 1301 1047 1301C1163.3 1301 1279.7 1301 1396 1301C1512.3 1301 1628.7 1301 1745.2 1301C1861.7 1301 1978.3 1301 2094.8 1301C2211.3 1301 2327.7 1301 2444 1301C2560.3 1301 2676.7 1301 2793 1301C2909.3 1301 3025.7 1301 3142 1301C3258.3 1301 3374.7 1301 3491 1301C3607.3 1301 3723.7 1301 3781.8 1301L3840 1301L3840 1104L3781.8 1123.5C3723.7 1143 3607.3 1182 3491 1190.7C3374.7 1199.3 3258.3 1177.7 3142 1160.3C3025.7 1143 2909.3 1130 2793 1136.5C2676.7 1143 2560.3 1169 2444 1173.3C2327.7 1177.7 2211.3 1160.3 2094.8 1160.3C1978.3 1160.3 1861.7 1177.7 1745.2 1184.2C1628.7 1190.7 1512.3 1186.3 1396 1184.2C1279.7 1182 1163.3 1182 1047 1171.2C930.7 1160.3 814.3 1138.7 698 1125.7C581.7 1112.7 465.3 1108.3 349 1108.3C232.7 1108.3 116.3 1112.7 58.2 1114.8L0 1117Z" fill="#bf84f4"></path></svg>